<svg width="1027" height="1027" viewBox="0 0 1027 1027" fill="none" xmlns="http://www.w3.org/2000/svg">
<path d="M835.5 389H190.5V919H835.5V389Z" fill="#B06238"/>
<path d="M375.5 569H300.5V919H375.5V569Z" fill="#4C1D25"/>
<path d="M551.5 569H476.5V919H551.5V569Z" fill="#4C1D25"/>
<path d="M723.5 569H648.5V919H723.5V569Z" fill="#4C1D25"/>
<path d="M253.914 855H159.086C154.896 855 151.5 858.326 151.5 862.429V873.571C151.5 877.674 154.896 881 159.086 881H253.914C258.104 881 261.5 877.674 261.5 873.571V862.429C261.5 858.326 258.104 855 253.914 855Z" fill="#72A56C" stroke="black" stroke-width="3"/>
<path fill-rule="evenodd" clip-rule="evenodd" d="M205.098 857.002H252.657C254.684 857.002 256.327 858.647 256.327 860.677V875.377C256.327 877.407 254.684 879.053 252.657 879.053H195.944C193.917 879.053 192.273 877.407 192.273 875.377C192.273 874.69 192.466 874.016 192.829 873.433L201.984 858.732C202.654 857.656 203.832 857.002 205.098 857.002Z" fill="#588352" fill-opacity="0.58"/>
<path fill-rule="evenodd" clip-rule="evenodd" d="M265.114 881C267.21 881 269.048 881.66 270.622 882.999C272.321 884.444 273.707 886.635 274.837 889.519C277.185 895.508 278.381 904.342 278.5 916H133.5C133.648 904.414 135.13 895.626 138.047 889.67C139.468 886.769 141.227 884.573 143.362 883.12C145.458 881.694 147.907 881 150.698 881H265.114Z" fill="#72A56C" stroke="black" stroke-width="3"/>
<path fill-rule="evenodd" clip-rule="evenodd" d="M199.104 883.04C212.279 883.04 253.724 883.04 264.264 883.04C271.291 883.04 274.805 892.841 274.805 912.441L172.012 912.158C181.29 892.746 190.32 883.04 199.104 883.04Z" fill="url(#paint0_linear_1_299)" fill-opacity="0.8"/>
<path d="M247.5 475H162.5V855H247.5V475Z" fill="#72A56C" stroke="black" stroke-width="3"/>
<path fill-rule="evenodd" clip-rule="evenodd" d="M236 495C239.038 495 241.5 497.313 241.5 500.166V837.993C241.5 840.758 239.113 843 236.17 843C236.113 843 236.057 842.999 236 842.997C232.935 842.906 230.5 840.545 230.5 837.665V500.166C230.5 497.313 232.962 495 236 495Z" fill="#8ABF77"/>
<path fill-rule="evenodd" clip-rule="evenodd" d="M232.007 499.456L232.107 499.716C233.039 502.139 233.518 504.674 233.526 507.226L234.5 829.231C234.508 831.785 234.044 834.323 233.125 836.752L232.506 838.389C232.33 838.853 231.75 839.107 231.21 838.957C230.787 838.838 230.5 838.499 230.5 838.116V499.664C230.5 499.297 230.846 499 231.273 499C231.607 499 231.902 499.184 232.007 499.456Z" fill="#4A6640"/>
<path fill-rule="evenodd" clip-rule="evenodd" d="M196 495C199.038 495 201.5 497.313 201.5 500.166V837.993C201.5 840.758 199.113 843 196.17 843C196.113 843 196.057 842.999 196 842.997C192.935 842.906 190.5 840.545 190.5 837.665V500.166C190.5 497.313 192.962 495 196 495Z" fill="#8ABF77"/>
<path fill-rule="evenodd" clip-rule="evenodd" d="M192.007 499.456L192.107 499.716C193.039 502.139 193.518 504.674 193.526 507.226L194.5 829.231C194.508 831.785 194.044 834.323 193.125 836.752L192.506 838.389C192.33 838.853 191.75 839.107 191.21 838.957C190.787 838.838 190.5 838.499 190.5 838.116V499.664C190.5 499.297 190.846 499 191.273 499C191.607 499 191.902 499.184 192.007 499.456Z" fill="#4A6640"/>
<path fill-rule="evenodd" clip-rule="evenodd" d="M218 495C221.038 495 223.5 497.313 223.5 500.166V837.993C223.5 840.758 221.113 843 218.17 843C218.113 843 218.057 842.999 218 842.997C214.935 842.906 212.5 840.545 212.5 837.665V500.166C212.5 497.313 214.962 495 218 495Z" fill="#8ABF77"/>
<path fill-rule="evenodd" clip-rule="evenodd" d="M214.007 499.456L214.107 499.716C215.039 502.139 215.518 504.674 215.526 507.226L216.5 829.231C216.508 831.785 216.044 834.323 215.125 836.752L214.506 838.389C214.33 838.853 213.75 839.107 213.21 838.957C212.787 838.838 212.5 838.499 212.5 838.116V499.664C212.5 499.297 212.846 499 213.273 499C213.607 499 213.902 499.184 214.007 499.456Z" fill="#4A6640"/>
<path fill-rule="evenodd" clip-rule="evenodd" d="M174 495C177.038 495 179.5 497.313 179.5 500.166V837.993C179.5 840.758 177.113 843 174.17 843C174.113 843 174.057 842.999 174 842.997C170.935 842.906 168.5 840.545 168.5 837.665V500.166C168.5 497.313 170.962 495 174 495Z" fill="#8ABF77"/>
<path fill-rule="evenodd" clip-rule="evenodd" d="M170.007 499.456L170.107 499.716C171.039 502.139 171.518 504.674 171.526 507.226L172.5 829.231C172.508 831.785 172.044 834.323 171.125 836.752L170.506 838.389C170.33 838.853 169.75 839.107 169.21 838.957C168.787 838.838 168.5 838.499 168.5 838.116V499.664C168.5 499.297 168.846 499 169.273 499C169.607 499 169.902 499.184 170.007 499.456Z" fill="#4A6640"/>
<path d="M249.259 441H158.741C154.742 441 151.5 444.383 151.5 448.556V467.444C151.5 471.617 154.742 475 158.741 475H249.259C253.258 475 256.5 471.617 256.5 467.444V448.556C256.5 444.383 253.258 441 249.259 441Z" fill="#72A56C" stroke="black" stroke-width="3"/>
<path d="M271.064 410H140.936C136.829 410 133.5 413.383 133.5 417.556V436.444C133.5 440.617 136.829 444 140.936 444H271.064C275.171 444 278.5 440.617 278.5 436.444V417.556C278.5 413.383 275.171 410 271.064 410Z" fill="#72A56C" stroke="black" stroke-width="3"/>
<path fill-rule="evenodd" clip-rule="evenodd" d="M168.834 412L271.19 412C273.217 412.006 274.856 413.655 274.851 415.685C274.849 416.192 274.743 416.693 274.539 417.157C267.839 432.469 257.348 440.326 243.065 440.73C219.355 441.401 204.938 442.504 185.864 439.74C174.276 438.061 167.388 430.232 165.201 416.253C164.883 414.248 166.249 412.364 168.251 412.046C168.444 412.015 168.639 412 168.834 412Z" fill="#689662" fill-opacity="0.72"/>
<path d="M161 493C176.188 493 188.5 480.688 188.5 465.5C188.5 450.312 176.188 438 161 438C145.812 438 133.5 450.312 133.5 465.5C133.5 480.688 145.812 493 161 493Z" fill="#79AF73" stroke="black" stroke-width="3"/>
<path d="M161 482C170.113 482 177.5 474.613 177.5 465.5C177.5 456.387 170.113 449 161 449C151.887 449 144.5 456.387 144.5 465.5C144.5 474.613 151.887 482 161 482Z" fill="#72A56C" stroke="black" stroke-width="3"/>
<path d="M249 493C264.188 493 276.5 480.688 276.5 465.5C276.5 450.312 264.188 438 249 438C233.812 438 221.5 450.312 221.5 465.5C221.5 480.688 233.812 493 249 493Z" fill="#79AF73" stroke="black" stroke-width="3"/>
<path d="M249 482C258.113 482 265.5 474.613 265.5 465.5C265.5 456.387 258.113 449 249 449C239.887 449 232.5 456.387 232.5 465.5C232.5 474.613 239.887 482 249 482Z" fill="#72A56C" stroke="black" stroke-width="3"/>
<path d="M868.914 855H774.086C769.896 855 766.5 858.326 766.5 862.429V873.571C766.5 877.674 769.896 881 774.086 881H868.914C873.104 881 876.5 877.674 876.5 873.571V862.429C876.5 858.326 873.104 855 868.914 855Z" fill="#72A56C" stroke="black" stroke-width="3"/>
<path fill-rule="evenodd" clip-rule="evenodd" d="M820.098 857.002H867.657C869.684 857.002 871.327 858.647 871.327 860.677V875.377C871.327 877.407 869.684 879.053 867.657 879.053H810.944C808.917 879.053 807.273 877.407 807.273 875.377C807.273 874.69 807.466 874.016 807.829 873.433L816.984 858.732C817.654 857.656 818.832 857.002 820.098 857.002Z" fill="#588352" fill-opacity="0.58"/>
<path fill-rule="evenodd" clip-rule="evenodd" d="M880.114 881C882.21 881 884.048 881.66 885.622 882.999C887.321 884.444 888.707 886.635 889.837 889.519C892.185 895.508 893.381 904.342 893.5 916H748.5C748.648 904.414 750.13 895.626 753.047 889.67C754.468 886.769 756.227 884.573 758.362 883.12C760.458 881.694 762.907 881 765.698 881H880.114Z" fill="#72A56C" stroke="black" stroke-width="3"/>
<path fill-rule="evenodd" clip-rule="evenodd" d="M814.104 883.04C827.279 883.04 868.724 883.04 879.265 883.04C886.291 883.04 889.805 892.841 889.805 912.441L787.012 912.158C796.29 892.746 805.32 883.04 814.104 883.04Z" fill="url(#paint1_linear_1_299)" fill-opacity="0.8"/>
<path d="M862.5 475H777.5V855H862.5V475Z" fill="#72A56C" stroke="black" stroke-width="3"/>
<path fill-rule="evenodd" clip-rule="evenodd" d="M851 495C854.038 495 856.5 497.313 856.5 500.166V837.993C856.5 840.758 854.113 843 851.17 843C851.113 843 851.057 842.999 851 842.997C847.935 842.906 845.5 840.545 845.5 837.665V500.166C845.5 497.313 847.962 495 851 495Z" fill="#8ABF77"/>
<path fill-rule="evenodd" clip-rule="evenodd" d="M847.007 499.456L847.107 499.716C848.039 502.139 848.518 504.674 848.526 507.226L849.5 829.231C849.508 831.785 849.044 834.323 848.125 836.752L847.506 838.389C847.33 838.853 846.75 839.107 846.21 838.957C845.787 838.838 845.5 838.499 845.5 838.116V499.664C845.5 499.297 845.846 499 846.273 499C846.607 499 846.902 499.184 847.007 499.456Z" fill="#4A6640"/>
<path fill-rule="evenodd" clip-rule="evenodd" d="M811 495C814.038 495 816.5 497.313 816.5 500.166V837.993C816.5 840.758 814.113 843 811.17 843C811.113 843 811.057 842.999 811 842.997C807.935 842.906 805.5 840.545 805.5 837.665V500.166C805.5 497.313 807.962 495 811 495Z" fill="#8ABF77"/>
<path fill-rule="evenodd" clip-rule="evenodd" d="M807.007 499.456L807.107 499.716C808.039 502.139 808.518 504.674 808.526 507.226L809.5 829.231C809.508 831.785 809.044 834.323 808.125 836.752L807.506 838.389C807.33 838.853 806.75 839.107 806.21 838.957C805.787 838.838 805.5 838.499 805.5 838.116V499.664C805.5 499.297 805.846 499 806.273 499C806.607 499 806.902 499.184 807.007 499.456Z" fill="#4A6640"/>
<path fill-rule="evenodd" clip-rule="evenodd" d="M833 495C836.038 495 838.5 497.313 838.5 500.166V837.993C838.5 840.758 836.113 843 833.17 843C833.113 843 833.057 842.999 833 842.997C829.935 842.906 827.5 840.545 827.5 837.665V500.166C827.5 497.313 829.962 495 833 495Z" fill="#8ABF77"/>
<path fill-rule="evenodd" clip-rule="evenodd" d="M829.007 499.456L829.107 499.716C830.039 502.139 830.518 504.674 830.526 507.226L831.5 829.231C831.508 831.785 831.044 834.323 830.125 836.752L829.506 838.389C829.33 838.853 828.75 839.107 828.21 838.957C827.787 838.838 827.5 838.499 827.5 838.116V499.664C827.5 499.297 827.846 499 828.273 499C828.607 499 828.902 499.184 829.007 499.456Z" fill="#4A6640"/>
<path fill-rule="evenodd" clip-rule="evenodd" d="M789 495C792.038 495 794.5 497.313 794.5 500.166V837.993C794.5 840.758 792.113 843 789.17 843C789.113 843 789.057 842.999 789 842.997C785.935 842.906 783.5 840.545 783.5 837.665V500.166C783.5 497.313 785.962 495 789 495Z" fill="#8ABF77"/>
<path fill-rule="evenodd" clip-rule="evenodd" d="M785.007 499.456L785.107 499.716C786.039 502.139 786.518 504.674 786.526 507.226L787.5 829.231C787.508 831.785 787.044 834.323 786.125 836.752L785.506 838.389C785.33 838.853 784.75 839.107 784.21 838.957C783.787 838.838 783.5 838.499 783.5 838.116V499.664C783.5 499.297 783.846 499 784.273 499C784.607 499 784.902 499.184 785.007 499.456Z" fill="#4A6640"/>
<path d="M864.259 441H773.741C769.742 441 766.5 444.383 766.5 448.556V467.444C766.5 471.617 769.742 475 773.741 475H864.259C868.258 475 871.5 471.617 871.5 467.444V448.556C871.5 444.383 868.258 441 864.259 441Z" fill="#72A56C" stroke="black" stroke-width="3"/>
<path d="M886.064 409H755.936C751.829 409 748.5 412.383 748.5 416.556V435.444C748.5 439.617 751.829 443 755.936 443H886.064C890.171 443 893.5 439.617 893.5 435.444V416.556C893.5 412.383 890.171 409 886.064 409Z" fill="#72A56C" stroke="black" stroke-width="3"/>
<path fill-rule="evenodd" clip-rule="evenodd" d="M783.834 410.257L886.191 410.258C888.218 410.263 889.856 411.913 889.851 413.943C889.85 414.449 889.743 414.95 889.54 415.414C882.839 430.726 872.348 438.584 858.065 438.988C834.355 439.659 819.938 440.761 800.865 437.997C789.276 436.318 782.388 428.489 780.201 414.51C779.883 412.505 781.249 410.622 783.251 410.303C783.444 410.272 783.639 410.257 783.834 410.257Z" fill="#689662" fill-opacity="0.72"/>
<path d="M776 493C791.188 493 803.5 480.688 803.5 465.5C803.5 450.312 791.188 438 776 438C760.812 438 748.5 450.312 748.5 465.5C748.5 480.688 760.812 493 776 493Z" fill="#79AF73" stroke="black" stroke-width="3"/>
<path d="M776 482C785.113 482 792.5 474.613 792.5 465.5C792.5 456.387 785.113 449 776 449C766.887 449 759.5 456.387 759.5 465.5C759.5 474.613 766.887 482 776 482Z" fill="#72A56C" stroke="black" stroke-width="3"/>
<path d="M864 493C879.188 493 891.5 480.688 891.5 465.5C891.5 450.312 879.188 438 864 438C848.812 438 836.5 450.312 836.5 465.5C836.5 480.688 848.812 493 864 493Z" fill="#79AF73" stroke="black" stroke-width="3"/>
<path d="M864 482C873.113 482 880.5 474.613 880.5 465.5C880.5 456.387 873.113 449 864 449C854.887 449 847.5 456.387 847.5 465.5C847.5 474.613 854.887 482 864 482Z" fill="#72A56C" stroke="black" stroke-width="3"/>
<path d="M663.914 855H569.086C564.896 855 561.5 858.326 561.5 862.429V873.571C561.5 877.674 564.896 881 569.086 881H663.914C668.104 881 671.5 877.674 671.5 873.571V862.429C671.5 858.326 668.104 855 663.914 855Z" fill="#72A56C" stroke="black" stroke-width="3"/>
<path fill-rule="evenodd" clip-rule="evenodd" d="M615.098 857.002H662.657C664.684 857.002 666.327 858.647 666.327 860.677V875.377C666.327 877.407 664.684 879.053 662.657 879.053H605.944C603.917 879.053 602.273 877.407 602.273 875.377C602.273 874.69 602.466 874.016 602.829 873.433L611.984 858.732C612.654 857.656 613.832 857.002 615.098 857.002Z" fill="#588352" fill-opacity="0.58"/>
<path fill-rule="evenodd" clip-rule="evenodd" d="M675.114 881C677.21 881 679.048 881.66 680.622 882.999C682.321 884.444 683.707 886.635 684.837 889.519C687.185 895.508 688.381 904.342 688.5 916H543.5C543.648 904.414 545.13 895.626 548.047 889.67C549.468 886.769 551.227 884.573 553.362 883.12C555.458 881.694 557.907 881 560.698 881H675.114Z" fill="#72A56C" stroke="black" stroke-width="3"/>
<path fill-rule="evenodd" clip-rule="evenodd" d="M609.104 883.04C622.279 883.04 663.724 883.04 674.265 883.04C681.291 883.04 684.805 892.841 684.805 912.441L582.012 912.158C591.29 892.746 600.32 883.04 609.104 883.04Z" fill="url(#paint2_linear_1_299)" fill-opacity="0.8"/>
<path d="M657.5 475H572.5V855H657.5V475Z" fill="#72A56C" stroke="black" stroke-width="3"/>
<path fill-rule="evenodd" clip-rule="evenodd" d="M646 495C649.038 495 651.5 497.313 651.5 500.166V837.993C651.5 840.758 649.113 843 646.17 843C646.113 843 646.057 842.999 646 842.997C642.935 842.906 640.5 840.545 640.5 837.665V500.166C640.5 497.313 642.962 495 646 495Z" fill="#8ABF77"/>
<path fill-rule="evenodd" clip-rule="evenodd" d="M642.007 499.456L642.107 499.716C643.039 502.139 643.518 504.674 643.526 507.226L644.5 829.231C644.508 831.785 644.044 834.323 643.125 836.752L642.506 838.389C642.33 838.853 641.75 839.107 641.21 838.957C640.787 838.838 640.5 838.499 640.5 838.116V499.664C640.5 499.297 640.846 499 641.273 499C641.607 499 641.902 499.184 642.007 499.456Z" fill="#4A6640"/>
<path fill-rule="evenodd" clip-rule="evenodd" d="M606 495C609.038 495 611.5 497.313 611.5 500.166V837.993C611.5 840.758 609.113 843 606.17 843C606.113 843 606.057 842.999 606 842.997C602.935 842.906 600.5 840.545 600.5 837.665V500.166C600.5 497.313 602.962 495 606 495Z" fill="#8ABF77"/>
<path fill-rule="evenodd" clip-rule="evenodd" d="M602.007 499.456L602.107 499.716C603.039 502.139 603.518 504.674 603.526 507.226L604.5 829.231C604.508 831.785 604.044 834.323 603.125 836.752L602.506 838.389C602.33 838.853 601.75 839.107 601.21 838.957C600.787 838.838 600.5 838.499 600.5 838.116V499.664C600.5 499.297 600.846 499 601.273 499C601.607 499 601.902 499.184 602.007 499.456Z" fill="#4A6640"/>
<path fill-rule="evenodd" clip-rule="evenodd" d="M628 495C631.038 495 633.5 497.313 633.5 500.166V837.993C633.5 840.758 631.113 843 628.17 843C628.113 843 628.057 842.999 628 842.997C624.935 842.906 622.5 840.545 622.5 837.665V500.166C622.5 497.313 624.962 495 628 495Z" fill="#8ABF77"/>
<path fill-rule="evenodd" clip-rule="evenodd" d="M624.007 499.456L624.107 499.716C625.039 502.139 625.518 504.674 625.526 507.226L626.5 829.231C626.508 831.785 626.044 834.323 625.125 836.752L624.506 838.389C624.33 838.853 623.75 839.107 623.21 838.957C622.787 838.838 622.5 838.499 622.5 838.116V499.664C622.5 499.297 622.846 499 623.273 499C623.607 499 623.902 499.184 624.007 499.456Z" fill="#4A6640"/>
<path fill-rule="evenodd" clip-rule="evenodd" d="M584 495C587.038 495 589.5 497.313 589.5 500.166V837.993C589.5 840.758 587.113 843 584.17 843C584.113 843 584.057 842.999 584 842.997C580.935 842.906 578.5 840.545 578.5 837.665V500.166C578.5 497.313 580.962 495 584 495Z" fill="#8ABF77"/>
<path fill-rule="evenodd" clip-rule="evenodd" d="M580.007 499.456L580.107 499.716C581.039 502.139 581.518 504.674 581.526 507.226L582.5 829.231C582.508 831.785 582.044 834.323 581.125 836.752L580.506 838.389C580.33 838.853 579.75 839.107 579.21 838.957C578.787 838.838 578.5 838.499 578.5 838.116V499.664C578.5 499.297 578.846 499 579.273 499C579.607 499 579.902 499.184 580.007 499.456Z" fill="#4A6640"/>
<path d="M659.259 441H568.741C564.742 441 561.5 444.383 561.5 448.556V467.444C561.5 471.617 564.742 475 568.741 475H659.259C663.258 475 666.5 471.617 666.5 467.444V448.556C666.5 444.383 663.258 441 659.259 441Z" fill="#72A56C" stroke="black" stroke-width="3"/>
<path d="M681.064 409H550.936C546.829 409 543.5 412.383 543.5 416.556V435.444C543.5 439.617 546.829 443 550.936 443H681.064C685.171 443 688.5 439.617 688.5 435.444V416.556C688.5 412.383 685.171 409 681.064 409Z" fill="#72A56C" stroke="black" stroke-width="3"/>
<path fill-rule="evenodd" clip-rule="evenodd" d="M578.834 410.257L681.191 410.258C683.218 410.263 684.856 411.913 684.851 413.943C684.85 414.449 684.743 414.95 684.54 415.414C677.839 430.726 667.348 438.584 653.065 438.988C629.355 439.659 614.938 440.761 595.865 437.997C584.276 436.318 577.388 428.489 575.201 414.51C574.883 412.505 576.249 410.622 578.251 410.303C578.444 410.272 578.639 410.257 578.834 410.257Z" fill="#689662" fill-opacity="0.72"/>
<path d="M571 493C586.188 493 598.5 480.688 598.5 465.5C598.5 450.312 586.188 438 571 438C555.812 438 543.5 450.312 543.5 465.5C543.5 480.688 555.812 493 571 493Z" fill="#79AF73" stroke="black" stroke-width="3"/>
<path d="M571 482C580.113 482 587.5 474.613 587.5 465.5C587.5 456.387 580.113 449 571 449C561.887 449 554.5 456.387 554.5 465.5C554.5 474.613 561.887 482 571 482Z" fill="#72A56C" stroke="black" stroke-width="3"/>
<path d="M659 493C674.188 493 686.5 480.688 686.5 465.5C686.5 450.312 674.188 438 659 438C643.812 438 631.5 450.312 631.5 465.5C631.5 480.688 643.812 493 659 493Z" fill="#79AF73" stroke="black" stroke-width="3"/>
<path d="M659 482C668.113 482 675.5 474.613 675.5 465.5C675.5 456.387 668.113 449 659 449C649.887 449 642.5 456.387 642.5 465.5C642.5 474.613 649.887 482 659 482Z" fill="#72A56C" stroke="black" stroke-width="3"/>
<path d="M458.914 855H364.086C359.896 855 356.5 858.326 356.5 862.429V873.571C356.5 877.674 359.896 881 364.086 881H458.914C463.104 881 466.5 877.674 466.5 873.571V862.429C466.5 858.326 463.104 855 458.914 855Z" fill="#72A56C" stroke="black" stroke-width="3"/>
<path fill-rule="evenodd" clip-rule="evenodd" d="M410.098 857.002H457.657C459.684 857.002 461.327 858.647 461.327 860.677V875.377C461.327 877.407 459.684 879.053 457.657 879.053H400.944C398.917 879.053 397.273 877.407 397.273 875.377C397.273 874.69 397.466 874.016 397.829 873.433L406.984 858.732C407.654 857.656 408.832 857.002 410.098 857.002Z" fill="#588352" fill-opacity="0.58"/>
<path fill-rule="evenodd" clip-rule="evenodd" d="M470.114 881C472.21 881 474.048 881.66 475.622 882.999C477.321 884.444 478.707 886.635 479.837 889.519C482.185 895.508 483.381 904.342 483.5 916H338.5C338.648 904.414 340.13 895.626 343.047 889.67C344.468 886.769 346.227 884.573 348.362 883.12C350.458 881.694 352.907 881 355.698 881H470.114Z" fill="#72A56C" stroke="black" stroke-width="3"/>
<path fill-rule="evenodd" clip-rule="evenodd" d="M404.104 883.04C417.279 883.04 458.724 883.04 469.264 883.04C476.291 883.04 479.805 892.841 479.805 912.441L377.012 912.158C386.29 892.746 395.32 883.04 404.104 883.04Z" fill="url(#paint3_linear_1_299)" fill-opacity="0.8"/>
<path d="M452.5 475H367.5V855H452.5V475Z" fill="#72A56C" stroke="black" stroke-width="3"/>
<path fill-rule="evenodd" clip-rule="evenodd" d="M441 495C444.038 495 446.5 497.313 446.5 500.166V837.993C446.5 840.758 444.113 843 441.17 843C441.113 843 441.057 842.999 441 842.997C437.935 842.906 435.5 840.545 435.5 837.665V500.166C435.5 497.313 437.962 495 441 495Z" fill="#8ABF77"/>
<path fill-rule="evenodd" clip-rule="evenodd" d="M437.007 499.456L437.107 499.716C438.039 502.139 438.518 504.674 438.526 507.226L439.5 829.231C439.508 831.785 439.044 834.323 438.125 836.752L437.506 838.389C437.33 838.853 436.75 839.107 436.21 838.957C435.787 838.838 435.5 838.499 435.5 838.116V499.664C435.5 499.297 435.846 499 436.273 499C436.607 499 436.902 499.184 437.007 499.456Z" fill="#4A6640"/>
<path fill-rule="evenodd" clip-rule="evenodd" d="M401 495C404.038 495 406.5 497.313 406.5 500.166V837.993C406.5 840.758 404.113 843 401.17 843C401.113 843 401.057 842.999 401 842.997C397.935 842.906 395.5 840.545 395.5 837.665V500.166C395.5 497.313 397.962 495 401 495Z" fill="#8ABF77"/>
<path fill-rule="evenodd" clip-rule="evenodd" d="M397.007 499.456L397.107 499.716C398.039 502.139 398.518 504.674 398.526 507.226L399.5 829.231C399.508 831.785 399.044 834.323 398.125 836.752L397.506 838.389C397.33 838.853 396.75 839.107 396.21 838.957C395.787 838.838 395.5 838.499 395.5 838.116V499.664C395.5 499.297 395.846 499 396.273 499C396.607 499 396.902 499.184 397.007 499.456Z" fill="#4A6640"/>
<path fill-rule="evenodd" clip-rule="evenodd" d="M423 495C426.038 495 428.5 497.313 428.5 500.166V837.993C428.5 840.758 426.113 843 423.17 843C423.113 843 423.057 842.999 423 842.997C419.935 842.906 417.5 840.545 417.5 837.665V500.166C417.5 497.313 419.962 495 423 495Z" fill="#8ABF77"/>
<path fill-rule="evenodd" clip-rule="evenodd" d="M419.007 499.456L419.107 499.716C420.039 502.139 420.518 504.674 420.526 507.226L421.5 829.231C421.508 831.785 421.044 834.323 420.125 836.752L419.506 838.389C419.33 838.853 418.75 839.107 418.21 838.957C417.787 838.838 417.5 838.499 417.5 838.116V499.664C417.5 499.297 417.846 499 418.273 499C418.607 499 418.902 499.184 419.007 499.456Z" fill="#4A6640"/>
<path fill-rule="evenodd" clip-rule="evenodd" d="M379 495C382.038 495 384.5 497.313 384.5 500.166V837.993C384.5 840.758 382.113 843 379.17 843C379.113 843 379.057 842.999 379 842.997C375.935 842.906 373.5 840.545 373.5 837.665V500.166C373.5 497.313 375.962 495 379 495Z" fill="#8ABF77"/>
<path fill-rule="evenodd" clip-rule="evenodd" d="M375.007 499.456L375.107 499.716C376.039 502.139 376.518 504.674 376.526 507.226L377.5 829.231C377.508 831.785 377.044 834.323 376.125 836.752L375.506 838.389C375.33 838.853 374.75 839.107 374.21 838.957C373.787 838.838 373.5 838.499 373.5 838.116V499.664C373.5 499.297 373.846 499 374.273 499C374.607 499 374.902 499.184 375.007 499.456Z" fill="#4A6640"/>
<path d="M454.259 441H363.741C359.742 441 356.5 444.383 356.5 448.556V467.444C356.5 471.617 359.742 475 363.741 475H454.259C458.258 475 461.5 471.617 461.5 467.444V448.556C461.5 444.383 458.258 441 454.259 441Z" fill="#72A56C" stroke="black" stroke-width="3"/>
<path d="M476.064 409H345.936C341.829 409 338.5 412.383 338.5 416.556V435.444C338.5 439.617 341.829 443 345.936 443H476.064C480.171 443 483.5 439.617 483.5 435.444V416.556C483.5 412.383 480.171 409 476.064 409Z" fill="#72A56C" stroke="black" stroke-width="3"/>
<path fill-rule="evenodd" clip-rule="evenodd" d="M373.834 410.257L476.19 410.258C478.217 410.263 479.856 411.913 479.851 413.943C479.849 414.449 479.743 414.95 479.539 415.414C472.839 430.726 462.348 438.584 448.065 438.988C424.355 439.659 409.938 440.761 390.864 437.997C379.276 436.318 372.388 428.489 370.201 414.51C369.883 412.505 371.249 410.622 373.251 410.303C373.444 410.272 373.639 410.257 373.834 410.257Z" fill="#689662" fill-opacity="0.72"/>
<path d="M366 493C381.188 493 393.5 480.688 393.5 465.5C393.5 450.312 381.188 438 366 438C350.812 438 338.5 450.312 338.5 465.5C338.5 480.688 350.812 493 366 493Z" fill="#79AF73" stroke="black" stroke-width="3"/>
<path d="M366 482C375.113 482 382.5 474.613 382.5 465.5C382.5 456.387 375.113 449 366 449C356.887 449 349.5 456.387 349.5 465.5C349.5 474.613 356.887 482 366 482Z" fill="#72A56C" stroke="black" stroke-width="3"/>
<path d="M454 493C469.188 493 481.5 480.688 481.5 465.5C481.5 450.312 469.188 438 454 438C438.812 438 426.5 450.312 426.5 465.5C426.5 480.688 438.812 493 454 493Z" fill="#79AF73" stroke="black" stroke-width="3"/>
<path d="M454 482C463.113 482 470.5 474.613 470.5 465.5C470.5 456.387 463.113 449 454 449C444.887 449 437.5 456.387 437.5 465.5C437.5 474.613 444.887 482 454 482Z" fill="#72A56C" stroke="black" stroke-width="3"/>
<path fill-rule="evenodd" clip-rule="evenodd" d="M920.27 916C922.278 916 924.259 916.422 926.055 917.232L945.5 926H81.5L100.945 917.232C102.741 916.422 104.722 916 106.73 916H920.27Z" fill="#FFD794" stroke="black" stroke-width="3"/>
<path fill-rule="evenodd" clip-rule="evenodd" d="M944.295 926C946.837 926 949.138 927.039 950.804 928.72C952.47 930.4 953.5 932.722 953.5 935.286V942.714C953.5 945.278 952.47 947.6 950.804 949.28C949.138 950.961 946.837 952 944.295 952H82.705C80.1631 952 77.8619 950.961 76.1961 949.28C74.5303 947.6 73.5 945.278 73.5 942.714V935.286C73.5 932.722 74.5303 930.4 76.1961 928.72C77.8619 927.039 80.1631 926 82.705 926H944.295Z" fill="#EDB75E" stroke="black" stroke-width="3"/>
<path fill-rule="evenodd" clip-rule="evenodd" d="M979.33 963C981.862 963 984.155 964.039 985.814 965.72C987.474 967.4 988.5 969.722 988.5 972.286V979.714C988.5 982.278 987.474 984.6 985.814 986.28C984.155 987.961 981.862 989 979.33 989H47.6699C45.1377 989 42.8452 987.961 41.1858 986.28C39.5264 984.6 38.5 982.278 38.5 979.714V972.286C38.5 969.722 39.5264 967.4 41.1858 965.72C42.8452 964.039 45.1377 963 47.6699 963H979.33Z" fill="#EDB75E" stroke="black" stroke-width="3"/>
<path fill-rule="evenodd" clip-rule="evenodd" d="M950.706 953C952.892 953 955.042 953.379 956.953 954.101L980.5 963H46.5L70.0472 954.101C71.9581 953.379 74.1081 953 76.294 953H950.706Z" fill="#FFD794" stroke="black" stroke-width="3"/>
<path fill-rule="evenodd" clip-rule="evenodd" d="M993.786 989C996.468 989 999.083 989.57 1001.27 990.63L1018.5 999H8.5L28.9017 990.33C30.947 989.461 33.3103 989 35.7221 989H993.786Z" fill="#FFD794" stroke="black" stroke-width="3"/>
<path fill-rule="evenodd" clip-rule="evenodd" d="M1016.32 999C1018.86 999 1021.15 1000.04 1022.81 1001.72C1024.47 1003.4 1025.5 1005.72 1025.5 1008.29V1015.71C1025.5 1018.28 1024.47 1020.6 1022.81 1022.28C1021.15 1023.96 1018.86 1025 1016.32 1025H10.6756C8.14185 1025 5.84794 1023.96 4.18748 1022.28C2.52702 1020.6 1.5 1018.28 1.5 1015.71V1008.29C1.5 1005.72 2.52702 1003.4 4.18748 1001.72C5.84794 1000.04 8.14185 999 10.6756 999H1016.32Z" fill="#EDB75E" stroke="black" stroke-width="3"/>
<path fill-rule="evenodd" clip-rule="evenodd" d="M968.383 409C970.901 409 973.18 407.921 974.83 406.176C976.48 404.431 977.5 402.02 977.5 399.358C977.5 396.384 976.506 393.796 974.86 391.948C973.212 390.098 970.919 389 968.383 389H36.617C34.0994 389 31.8202 390.079 30.1703 391.824C28.5205 393.569 27.5 395.98 27.5 398.642C27.5 401.616 28.4942 404.204 30.1402 406.052C31.7876 407.902 34.0814 409 36.617 409H968.383Z" fill="#F4C165" stroke="black" stroke-width="2"/>
<path d="M912.5 285H98.5C92.4249 285 87.5 289.274 87.5 294.545V345.455C87.5 350.726 92.4249 355 98.5 355H912.5C918.575 355 923.5 350.726 923.5 345.455V294.545C923.5 289.274 918.575 285 912.5 285Z" fill="#F4C165" stroke="black" stroke-width="2"/>
<path fill-rule="evenodd" clip-rule="evenodd" d="M496.563 5.11379C507.105 -0.371262 519.894 -0.371262 530.436 5.11379L1022.64 261.209C1023.98 261.905 1024.89 263.047 1025.28 264.331C1025.67 265.614 1025.55 267.039 1024.81 268.301C1024.32 269.134 1023.62 269.808 1022.78 270.275C1021.94 270.742 1020.97 271 1019.96 271H7.03573C5.50708 271 4.12315 270.416 3.12138 269.471C2.11961 268.526 1.5 267.221 1.5 265.78C1.5 264.829 1.77405 263.916 2.26877 263.125C2.76348 262.335 3.47887 261.668 4.36155 261.209L496.563 5.11379Z" fill="#F7BF6C" stroke="black" stroke-width="2"/>
<path fill-rule="evenodd" clip-rule="evenodd" d="M520.404 21.6544L996.5 265H30.5L506.596 21.6544C510.912 19.4485 516.088 19.4485 520.404 21.6544Z" fill="#A16121"/>
<path fill-rule="evenodd" clip-rule="evenodd" d="M520.413 28.671L978.5 265H48.5L506.587 28.671C510.906 26.443 516.094 26.443 520.413 28.671Z" fill="#D5934A"/>
<path fill-rule="evenodd" clip-rule="evenodd" d="M520.249 36.6803L963.5 265H63.5L506.31 36.683C510.66 34.44 515.898 34.4389 520.249 36.6803Z" fill="#F2BD63"/>
<path d="M507.432 63.3857C511.093 61.5391 515.507 61.5386 519.169 63.3838L917.294 264H109.702L507.432 63.3857Z" fill="#D49445" stroke="black" stroke-width="2"/>
<path fill-rule="evenodd" clip-rule="evenodd" d="M518.974 81.3369L878.5 263H148.5L507.668 81.3391C511.197 79.5544 515.445 79.5536 518.974 81.3369Z" fill="#F6BF67"/>
<path d="M65.5 362H945.5" stroke="#AF6039" stroke-width="12" stroke-linecap="round"/>
<path d="M65.5 278H945.5" stroke="#AF6137" stroke-width="12" stroke-linecap="round"/>
<path fill-rule="evenodd" clip-rule="evenodd" d="M985.355 389C987.88 389 990.167 387.921 991.821 386.176C993.476 384.431 994.5 382.02 994.5 379.358C994.5 376.384 993.503 373.796 991.852 371.948C990.199 370.098 987.898 369 985.355 369H23.6449C21.1196 369 18.8334 370.079 17.1785 371.824C15.5236 373.569 14.5 375.98 14.5 378.642C14.5 381.616 15.4972 384.204 17.1483 386.052C18.8007 387.902 21.1015 389 23.6449 389H985.355Z" fill="#F4C165" stroke="black" stroke-width="2"/>
<path d="M259.804 300.2H278.62C285.062 300.2 289.862 301.139 293.02 303.016C296.177 304.851 297.756 308.157 297.756 312.936C297.756 318.227 295.836 321.875 291.996 323.88C288.412 325.715 283.398 326.632 276.956 326.632H276.444V343.784H284.444V345H259.804V343.784H263.964V301.416H259.804V300.2ZM276.444 301.416V325.416H277.788C280.348 325.416 282.118 324.541 283.1 322.792C284.081 321.043 284.572 318.205 284.572 314.28V311.208C284.572 307.581 284.102 305.043 283.164 303.592C282.268 302.141 280.604 301.416 278.172 301.416H276.444ZM323.189 321.256L332.277 301.224H325.813V300.2H338.421V301.224H334.197L324.533 322.6V343.784H328.437V345H308.149V343.784H312.053V323.816L301.173 301.224H298.165V300.2H318.645V301.224H314.485L323.189 321.256ZM379.485 300.2L380.125 316.264H378.909C377.032 310.589 375.368 306.728 373.917 304.68C372.467 302.589 370.376 301.544 367.645 301.544H366.877V343.656H372.317V345H348.957V343.656H354.397V301.544H353.565C350.835 301.544 348.723 302.632 347.229 304.808C345.736 306.941 344.093 310.76 342.301 316.264H341.085L341.725 300.2H379.485ZM383.813 300.2H403.781V301.416H400.069V321.256H412.805V301.416H409.029V300.2H429.061V301.416H425.285V343.784H429.061V345H409.029V343.784H412.805V322.92H400.069V343.784H403.781V345H383.813V343.784H387.589V301.416H383.813V300.2ZM462.47 325.224V320.488C462.47 312.68 462.086 307.752 461.318 305.704C460.465 303.357 459.249 301.907 457.67 301.352C456.774 301.011 455.686 300.84 454.406 300.84C453.126 300.84 452.017 301.011 451.078 301.352C450.182 301.693 449.436 302.291 448.838 303.144C448.241 303.997 447.75 304.893 447.366 305.832C447.025 306.771 446.748 308.093 446.534 309.8C446.278 312.275 446.15 315.923 446.15 320.744V325.352C446.15 330.557 446.342 334.269 446.726 336.488C447.153 338.664 447.665 340.221 448.262 341.16C449.585 343.251 451.633 344.296 454.406 344.296C457.777 344.296 459.953 342.888 460.934 340.072C461.958 337.213 462.47 332.264 462.47 325.224ZM454.278 345.64C447.153 345.64 441.82 343.72 438.278 339.88C434.78 335.997 433.03 330.408 433.03 323.112C433.03 315.773 434.908 310.013 438.662 305.832C442.46 301.608 447.814 299.496 454.726 299.496C461.638 299.496 466.844 301.501 470.342 305.512C473.884 309.48 475.654 315.133 475.654 322.472C475.654 329.811 473.862 335.507 470.278 339.56C466.737 343.613 461.404 345.64 454.278 345.64ZM516.041 301.416V345H507.081L485.129 303.592V343.784H488.649V345H479.881V343.784H483.401V301.416H479.881V300.2H497.545L514.313 332.328V301.416H510.793V300.2H519.561V301.416H516.041ZM558.256 300.776C551.643 300.776 548.336 307.155 548.336 319.912V324.968C548.336 331.027 549.211 335.784 550.96 339.24C552.71 342.653 555.291 344.36 558.704 344.36C563.398 344.36 567.707 339.795 571.632 330.664H572.784L572.336 344.936H571.632C571.376 344.467 571.142 344.147 570.928 343.976C570.715 343.763 570.395 343.656 569.968 343.656C569.584 343.656 568.048 343.997 565.36 344.68C562.672 345.32 559.942 345.64 557.168 345.64C550.214 345.64 544.816 343.763 540.976 340.008C537.179 336.253 535.28 330.621 535.28 323.112C535.28 315.56 537.264 309.736 541.232 305.64C545.243 301.544 550.619 299.496 557.36 299.496C559.963 299.496 562.502 299.837 564.976 300.52C567.494 301.16 568.966 301.48 569.392 301.48C569.819 301.48 570.139 301.395 570.352 301.224C570.566 301.011 570.8 300.669 571.056 300.2H571.76L572.272 314.088H571.12C569.2 309.779 567.216 306.493 565.168 304.232C563.163 301.928 560.859 300.776 558.256 300.776ZM606.97 325.224V320.488C606.97 312.68 606.586 307.752 605.818 305.704C604.965 303.357 603.749 301.907 602.17 301.352C601.274 301.011 600.186 300.84 598.906 300.84C597.626 300.84 596.517 301.011 595.578 301.352C594.682 301.693 593.936 302.291 593.338 303.144C592.741 303.997 592.25 304.893 591.866 305.832C591.525 306.771 591.248 308.093 591.034 309.8C590.778 312.275 590.65 315.923 590.65 320.744V325.352C590.65 330.557 590.842 334.269 591.226 336.488C591.653 338.664 592.165 340.221 592.762 341.16C594.085 343.251 596.133 344.296 598.906 344.296C602.277 344.296 604.453 342.888 605.434 340.072C606.458 337.213 606.97 332.264 606.97 325.224ZM598.778 345.64C591.653 345.64 586.32 343.72 582.778 339.88C579.28 335.997 577.53 330.408 577.53 323.112C577.53 315.773 579.408 310.013 583.162 305.832C586.96 301.608 592.314 299.496 599.226 299.496C606.138 299.496 611.344 301.501 614.842 305.512C618.384 309.48 620.154 315.133 620.154 322.472C620.154 329.811 618.362 335.507 614.778 339.56C611.237 343.613 605.904 345.64 598.778 345.64ZM639.5 331.368C639.5 335.293 640.162 338.301 641.484 340.392C642.85 342.483 645.282 343.528 648.78 343.528C652.279 343.528 654.967 342.44 656.844 340.264C658.722 338.088 659.66 334.781 659.66 330.344V301.416H655.5V300.2H664.844V301.416H661.324V329.896C661.324 335.187 660.151 339.133 657.804 341.736C655.458 344.339 651.298 345.64 645.324 345.64C639.394 345.64 634.85 344.403 631.692 341.928C628.578 339.453 627.02 335.208 627.02 329.192V301.416H623.5V300.2H643.66V301.416H639.5V331.368ZM686.836 322.344H683.444V343.784H687.604V345H666.804V343.784H670.964V301.416H666.804V300.2H686.132C691.678 300.2 695.604 300.499 697.908 301.096C700.254 301.651 701.897 302.333 702.836 303.144C704.884 304.808 705.908 307.453 705.908 311.08C705.908 314.707 705.012 317.309 703.22 318.888C701.428 320.424 698.697 321.341 695.028 321.64V321.832C698.484 322.301 700.894 323.325 702.26 324.904C703.625 326.483 704.308 329.128 704.308 332.84V336.232C704.308 338.451 704.414 339.944 704.628 340.712C704.884 341.48 705.396 341.864 706.164 341.864C706.932 341.864 707.529 341.523 707.956 340.84C708.425 340.115 708.852 338.621 709.236 336.36L710.324 336.488C709.854 340.115 709.022 342.547 707.828 343.784C706.676 345.021 704.35 345.64 700.852 345.64C697.353 345.64 694.857 344.829 693.364 343.208C691.913 341.544 691.188 338.451 691.188 333.928V329.256C691.188 326.867 690.868 325.117 690.228 324.008C689.63 322.899 688.5 322.344 686.836 322.344ZM683.444 301.416V321.128H685.492C687.924 321.128 689.716 320.381 690.868 318.888C692.062 317.395 692.66 314.963 692.66 311.592V309.736C692.66 306.365 692.084 304.147 690.932 303.08C689.822 301.971 688.03 301.416 685.556 301.416H683.444ZM749.173 300.2L749.813 316.264H748.597C746.719 310.589 745.055 306.728 743.605 304.68C742.154 302.589 740.063 301.544 737.333 301.544H736.565V343.656H742.005V345H718.645V343.656H724.085V301.544H723.253C720.522 301.544 718.41 302.632 716.917 304.808C715.423 306.941 713.781 310.76 711.989 316.264H710.773L711.413 300.2H749.173Z" fill="black"/>
<defs>
<linearGradient id="paint0_linear_1_299" x1="28.429" y1="2353.1" x2="10070.8" y2="2549.3" gradientUnits="userSpaceOnUse">
<stop stop-color="#689262"/>
<stop offset="1" stop-color="#4C7847"/>
</linearGradient>
<linearGradient id="paint1_linear_1_299" x1="643.429" y1="2353.1" x2="10685.8" y2="2549.3" gradientUnits="userSpaceOnUse">
<stop stop-color="#689262"/>
<stop offset="1" stop-color="#4C7847"/>
</linearGradient>
<linearGradient id="paint2_linear_1_299" x1="438.429" y1="2353.1" x2="10480.8" y2="2549.3" gradientUnits="userSpaceOnUse">
<stop stop-color="#689262"/>
<stop offset="1" stop-color="#4C7847"/>
</linearGradient>
<linearGradient id="paint3_linear_1_299" x1="233.429" y1="2353.1" x2="10275.8" y2="2549.3" gradientUnits="userSpaceOnUse">
<stop stop-color="#689262"/>
<stop offset="1" stop-color="#4C7847"/>
</linearGradient>
</defs>
</svg>
